<svg width="133" height="133" viewBox="0 0 133 133" fill="none" xmlns="http://www.w3.org/2000/svg">
<rect opacity="0.1" width="133" height="133" rx="66.5" fill="#5B8AC6"/>
<path d="M56.2917 79.625H76.7083C77.4819 79.625 78.2237 79.3177 78.7707 78.7707C79.3177 78.2237 79.625 77.4819 79.625 76.7083V56.2917C79.625 55.5181 79.3177 54.7763 78.7707 54.2293C78.2237 53.6823 77.4819 53.375 76.7083 53.375H56.2917C55.5181 53.375 54.7763 53.6823 54.2293 54.2293C53.6823 54.7763 53.375 55.5181 53.375 56.2917V76.7083C53.375 77.4819 53.6823 78.2237 54.2293 78.7707C54.7763 79.3177 55.5181 79.625 56.2917 79.625ZM60.6667 69.4167L64.1127 72.8627L69.4167 65.0417L76.7083 75.25H56.2917L60.6667 69.4167Z" fill="#5B8AC6"/>
</svg>
